# xmcd CD database file
#
# Track frame offsets:
#	150
#	29698
#	58586
#	86991
#	116101
#	146686
#	181999
#	216131
#	242980
#	267623
#	302751
#
# Disc length: 4068 seconds
#
# Revision: 0
# Processed by: cddbd v1.5.2PL0 Copyright (c) Steve Scherf et al.
# Submitted via: CDex 1.70beta2
#
DISCID=ae0fe20b
DTITLE=Chris Chabris - The Invisible Gorilla
DYEAR=2010
DGENRE=Audiobook
TTITLE0=Invisible Gorilla D8T01
TTITLE1=Invisible Gorilla D8T02
TTITLE2=Invisible Gorilla D8T03
TTITLE3=Invisible Gorilla D8T04
TTITLE4=Invisible Gorilla D8T05
TTITLE5=Invisible Gorilla D8T06
TTITLE6=Invisible Gorilla D8T07
TTITLE7=Invisible Gorilla D8T08
TTITLE8=Invisible Gorilla D8T09
TTITLE9=Invisible Gorilla D8T10
TTITLE10=Invisible Gorilla D8T11
EXTD=YEAR: 2010
EXTT0=
EXTT1=
EXTT2=
EXTT3=
EXTT4=
EXTT5=
EXTT6=
EXTT7=
EXTT8=
EXTT9=
EXTT10=
PLAYORDER=
